<svg width="14" height="14" viewBox="0 0 14 14" fill="none" xmlns="http://www.w3.org/2000/svg">
<g clip-path="url(#clip0)">
<path d="M13.9896 3.01613C13.9896 3.00014 14.0006 2.98456 13.9999 2.96875L9.72754 7.08536L13.9948 11.0705C13.9973 11.042 13.9896 11.0133 13.9896 10.9842V3.01613Z" fill="#FDA43C"/>
<path d="M9.07546 7.71875L7.33137 9.39678C7.24311 9.48169 7.12913 9.52427 7.01508 9.52427C6.90341 9.52427 6.79174 9.48351 6.70409 9.40183L4.96475 7.78103L0.669678 11.921C0.774114 11.9585 0.886213 11.9877 1.0036 11.9877H13.0266C13.2009 11.9877 13.3644 11.9346 13.5066 11.8554L9.07546 7.71875Z" fill="#FDA43C"/>
<path d="M7.01029 8.44016L13.5304 2.15934C13.3828 2.07157 13.211 2.0127 13.0268 2.0127H1.0038C0.763967 2.0127 0.544207 2.10582 0.373047 2.24784L7.01029 8.44016Z" fill="#FDA43C"/>
<path d="M0 3.16992V10.9849C0 11.0746 0.0206195 11.1611 0.043003 11.2438L4.28479 7.15904L0 3.16992Z" fill="#FDA43C"/>
</g>
<defs>
<clipPath id="clip0">
<rect width="14" height="14" fill="white"/>
</clipPath>
</defs>
</svg>
